<svg xmlns="http://www.w3.org/2000/svg" viewBox="0 0 1200 630" width="1200" height="630">
  <defs>
    <linearGradient id="sky" x1="0" y1="0" x2="0.2" y2="1">
      <stop offset="0%" stop-color="#07111F"/>
      <stop offset="100%" stop-color="#183A5C"/>
    </linearGradient>
    <radialGradient id="glow" cx="0.78" cy="0.18" r="0.55">
      <stop offset="0%" stop-color="#19C3E6" stop-opacity="0.45"/>
      <stop offset="100%" stop-color="#19C3E6" stop-opacity="0"/>
    </radialGradient>
    <linearGradient id="snow" x1="0" y1="0" x2="0.3" y2="1">
      <stop offset="0%" stop-color="#F8FBFF"/>
      <stop offset="100%" stop-color="#C0E1F8"/>
    </linearGradient>
  </defs>

  <rect width="1200" height="630" fill="url(#sky)"/>
  <rect width="1200" height="630" fill="url(#glow)"/>
  <circle cx="950" cy="130" r="52" fill="#F8FBFF" opacity="0.55"/>

  <path d="M0 400 L150 300 L280 360 L420 250 L560 340 L700 240 L840 330 L980 260 L1120 350 L1200 310 L1200 630 L0 630 Z" fill="#20375A" opacity="0.8"/>
  <path d="M0 470 L160 370 L320 440 L470 300 L620 400 L780 330 L930 430 L1080 360 L1200 420 L1200 630 L0 630 Z" fill="url(#snow)"/>
  <path d="M470 300 L516 356 L488 368 L442 350 Z" fill="#FFFFFF"/>

  <g transform="translate(72 92)">
    <rect width="64" height="64" rx="16" fill="#19C3E6"/>
    <path d="M12 46 L26 22 L34 35 L40 26 L52 46 Z" fill="#07111F"/>
  </g>

  <text x="156" y="126" font-family="Manrope, Inter, system-ui, sans-serif" font-size="30" font-weight="800" fill="#19C3E6" letter-spacing="4">SILBERGRAT SKIARENA</text>
  <text x="72" y="230" font-family="Manrope, Inter, system-ui, sans-serif" font-size="66" font-weight="800" fill="#FFFFFF">A hegy nyitva.</text>
  <text x="72" y="304" font-family="Manrope, Inter, system-ui, sans-serif" font-size="66" font-weight="800" fill="#FFFFFF">A szállás egy sílécnyire.</text>
  <text x="72" y="372" font-family="Inter, system-ui, sans-serif" font-size="27" fill="#DCEFFC">Hójelentés · Jegyek · Síiskola · Vendégház 22 főig</text>
</svg>
